<mxfile host="Electron" agent="Mozilla/5.0 (Windows NT 10.0; Win64; x64) AppleWebKit/537.36 (KHTML, like Gecko) draw.io/24.7.17 Chrome/128.0.6613.36 Electron/32.0.1 Safari/537.36" version="24.7.17">
  <diagram name="Page-1" id="2cc2dc42-3aac-f2a9-1cec-7a8b7cbee084">
    <mxGraphModel dx="1518" dy="731" grid="1" gridSize="10" guides="1" tooltips="1" connect="1" arrows="1" fold="1" page="1" pageScale="1" pageWidth="1100" pageHeight="850" background="none" math="0" shadow="0">
      <root>
        <mxCell id="0" />
        <mxCell id="1" parent="0" />
        <mxCell id="yRVsungV-v0WATQHj0iz-91" value="" style="strokeWidth=1;shadow=0;dashed=0;align=center;html=1;shape=mxgraph.mockup.containers.browserWindow;rSize=0;strokeColor=#666666;strokeColor2=#008cff;strokeColor3=#c4c4c4;mainText=,;recursiveResize=0;movable=1;resizable=1;rotatable=1;deletable=1;editable=1;locked=0;connectable=1;" vertex="1" parent="1">
          <mxGeometry x="20" y="20" width="1060" height="1620" as="geometry" />
        </mxCell>
        <mxCell id="yRVsungV-v0WATQHj0iz-92" value="" style="strokeWidth=1;shadow=0;dashed=0;align=center;html=1;shape=mxgraph.mockup.containers.anchor;fontSize=17;fontColor=#666666;align=left;whiteSpace=wrap;" vertex="1" parent="yRVsungV-v0WATQHj0iz-91">
          <mxGeometry x="60" y="12" width="110" height="26" as="geometry" />
        </mxCell>
        <mxCell id="yRVsungV-v0WATQHj0iz-93" value="https://www.basiquecuisine.fr" style="strokeWidth=1;shadow=0;dashed=0;align=center;html=1;shape=mxgraph.mockup.containers.anchor;rSize=0;fontSize=17;fontColor=#666666;align=left;" vertex="1" parent="yRVsungV-v0WATQHj0iz-91">
          <mxGeometry x="130" y="60" width="250" height="26" as="geometry" />
        </mxCell>
        <mxCell id="yRVsungV-v0WATQHj0iz-96" value="" style="rounded=0;whiteSpace=wrap;html=1;fillColor=#2b303a;strokeColor=#2b303a;" vertex="1" parent="yRVsungV-v0WATQHj0iz-91">
          <mxGeometry y="1500" width="1060" height="120" as="geometry" />
        </mxCell>
        <mxCell id="yRVsungV-v0WATQHj0iz-94" value="" style="rounded=0;whiteSpace=wrap;html=1;fillColor=#2b303a;strokeColor=#2b303a;movable=1;resizable=1;rotatable=1;deletable=1;editable=1;locked=0;connectable=1;" vertex="1" parent="1">
          <mxGeometry x="20" y="130" width="1060" height="70" as="geometry" />
        </mxCell>
        <mxCell id="yRVsungV-v0WATQHj0iz-95" value="" style="rounded=0;whiteSpace=wrap;html=1;fillColor=#f7f7ff;" vertex="1" parent="1">
          <mxGeometry x="20" y="200" width="1060" height="1320" as="geometry" />
        </mxCell>
        <mxCell id="yRVsungV-v0WATQHj0iz-97" value="connexion" style="strokeWidth=1;shadow=0;dashed=0;align=center;html=1;shape=mxgraph.mockup.buttons.button;strokeColor=#666666;fontColor=#2b303a;mainText=;buttonStyle=round;fontSize=10;fontStyle=1;fillColor=#ffd131;whiteSpace=wrap;" vertex="1" parent="1">
          <mxGeometry x="980" y="150" width="80" height="30" as="geometry" />
        </mxCell>
        <mxCell id="yRVsungV-v0WATQHj0iz-98" value="Search" style="strokeWidth=1;shadow=0;dashed=0;align=center;html=1;shape=mxgraph.mockup.forms.searchBox;strokeColor=#999999;mainText=;strokeColor2=#008cff;fontColor=#666666;fontSize=17;align=left;spacingLeft=3;whiteSpace=wrap;" vertex="1" parent="1">
          <mxGeometry x="790" y="150" width="150" height="30" as="geometry" />
        </mxCell>
        <mxCell id="yRVsungV-v0WATQHj0iz-99" value="Basique cuisine" style="text;strokeColor=none;fillColor=none;html=1;fontSize=24;fontStyle=1;verticalAlign=middle;align=center;" vertex="1" parent="1">
          <mxGeometry x="443" y="145" width="215" height="40" as="geometry" />
        </mxCell>
        <mxCell id="yRVsungV-v0WATQHj0iz-100" value="" style="shape=image;html=1;verticalLabelPosition=bottom;verticalAlign=top;imageAspect=1;aspect=fixed;image=img/clipart/Gear_128x128.png" vertex="1" parent="1">
          <mxGeometry x="30" y="140.37" width="42" height="49.27" as="geometry" />
        </mxCell>
        <mxCell id="yRVsungV-v0WATQHj0iz-102" value="" style="rounded=1;whiteSpace=wrap;html=1;fillColor=#2b303a;" vertex="1" parent="1">
          <mxGeometry x="55" y="250" width="990" height="420" as="geometry" />
        </mxCell>
      </root>
    </mxGraphModel>
  </diagram>
</mxfile>
